<?xml version="1.0" standalone="no"?>
<!DOCTYPE svg PUBLIC "-//W3C//DTD SVG 20010904//EN"
 "http://www.w3.org/TR/2001/REC-SVG-20010904/DTD/svg10.dtd">
<svg version="1.0" xmlns="http://www.w3.org/2000/svg"
 width="80.000000pt" height="80.000000pt" viewBox="0 0 80.000000 80.000000"
 preserveAspectRatio="xMidYMid meet">
<metadata>
Created by potrace 1.14, written by Peter Selinger 2001-2017
</metadata>
<g transform="translate(0.000000,80.000000) scale(0.100000,-0.100000)"
fill="#000000" stroke="none">
<path d="M190 415 c0 -88 2 -98 25 -120 53 -54 145 -16 145 59 0 26 -7 40 -32
61 -31 26 -57 29 -100 10 -16 -6 -18 -1 -18 39 0 25 -4 46 -10 46 -6 0 -10
-38 -10 -95z m136 -34 c15 -30 7 -59 -23 -78 -29 -20 -69 -5 -82 29 -26 70 72
114 105 49z"/>
<path d="M547 503 c-4 -3 -7 -50 -7 -104 0 -100 10 -129 46 -129 19 0 18 16
-1 24 -12 4 -15 26 -15 111 0 96 -5 117 -23 98z"/>
<path d="M415 428 c-77 -42 -49 -158 38 -158 32 0 77 29 77 50 0 15 -9 12 -37
-10 -30 -23 -56 -26 -71 -7 -9 10 2 20 48 46 33 18 60 36 60 41 0 15 -52 50
-74 50 -11 0 -30 -6 -41 -12z m73 -40 c-34 -23 -91 -49 -96 -44 -10 11 18 57
40 65 28 10 76 -8 56 -21z"/>
</g>
</svg>
